<?xml version="1.0" encoding="utf-8"?><svg xmlns="http://www.w3.org/2000/svg" xmlns:xlink="http://www.w3.org/1999/xlink"><symbol viewBox="0 0 18 18" id="arrow-right" xmlns="http://www.w3.org/2000/svg"><path d="M3.75 9H14.25" stroke-width="1.125" stroke-linecap="round" stroke-linejoin="round"/><path d="M9.75 13.5L14.25 9" stroke-width="1.125" stroke-linecap="round" stroke-linejoin="round"/><path d="M9.75 4.5L14.25 9" stroke-width="1.125" stroke-linecap="round" stroke-linejoin="round"/></symbol><symbol viewBox="0 0 20 20" id="arrow-right-small" xmlns="http://www.w3.org/2000/svg"><path d="M4.16675 10H15.8334" stroke-width="1.25" stroke-linecap="round" stroke-linejoin="round"/><path d="M10.8333 15L15.8332 10" stroke-width="1.25" stroke-linecap="round" stroke-linejoin="round"/><path d="M10.8333 5L15.8332 10" stroke-width="1.25" stroke-linecap="round" stroke-linejoin="round"/></symbol><symbol viewBox="0 0 48 48" id="call" xmlns="http://www.w3.org/2000/svg"><path d="M42 38V34.7081C42 33.0725 41.0042 31.6017 39.4856 30.9942L35.4173 29.3669C33.4857 28.5943 31.2844 29.4312 30.354 31.292L30 32C30 32 25 31 21 27C17 23 16 18 16 18L16.708 17.646C18.5688 16.7156 19.4057 14.5143 18.6331 12.5827L17.0058 8.51444C16.3983 6.99581 14.9275 6 13.2919 6H10C7.79086 6 6 7.79086 6 10C6 27.6731 20.3269 42 38 42C40.2091 42 42 40.2091 42 38Z" stroke-width="2.5" stroke-linejoin="round"/></symbol><symbol viewBox="0 0 19 18" id="chevron-down" xmlns="http://www.w3.org/2000/svg"><path d="M5.20435 6.75L9.70435 11.25L14.2043 6.75" stroke-width="1.125" stroke-linecap="round" stroke-linejoin="round"/></symbol><symbol viewBox="0 0 12 12" id="close" xmlns="http://www.w3.org/2000/svg"><path fill-rule="evenodd" clip-rule="evenodd" d="M11.4419 1.44194C11.686 1.19786 11.686 0.802136 11.4419 0.558058C11.1979 0.313981 10.8021 0.313981 10.5581 0.558058L6 5.11612L1.44194 0.558058C1.19786 0.313981 0.802136 0.313981 0.558058 0.558058C0.313981 0.802136 0.313981 1.19786 0.558058 1.44194L5.11612 6L0.558058 10.5581C0.313981 10.8021 0.313981 11.1979 0.558058 11.4419C0.802136 11.686 1.19786 11.686 1.44194 11.4419L6 6.88388L10.5581 11.4419C10.8021 11.686 11.1979 11.686 11.4419 11.4419C11.686 11.1979 11.686 10.8021 11.4419 10.5581L6.88388 6L11.4419 1.44194Z"/></symbol><symbol viewBox="0 0 14 14" id="close-mobile" xmlns="http://www.w3.org/2000/svg"><path fill-rule="evenodd" clip-rule="evenodd" d="M0.292893 0.292893C0.683417 -0.0976309 1.31658 -0.0976309 1.70711 0.292893L7 5.58579L12.2929 0.292893C12.6834 -0.0976311 13.3166 -0.0976311 13.7071 0.292893C14.0976 0.683417 14.0976 1.31658 13.7071 1.70711L8.41421 7L13.7071 12.2929C14.0976 12.6834 14.0976 13.3166 13.7071 13.7071C13.3166 14.0976 12.6834 14.0976 12.2929 13.7071L7 8.41421L1.70711 13.7071C1.31658 14.0976 0.683418 14.0976 0.292893 13.7071C-0.0976309 13.3166 -0.0976309 12.6834 0.292893 12.2929L5.58579 7L0.292893 1.70711C-0.0976311 1.31658 -0.0976311 0.683418 0.292893 0.292893Z"/></symbol><symbol viewBox="0 0 24 24" id="email" xmlns="http://www.w3.org/2000/svg"><path fill-rule="evenodd" clip-rule="evenodd" d="M4.07675 6.53075C4.23299 6.01858 4.70925 5.646 5.27254 5.646H19.2725C19.8358 5.646 20.3121 6.01858 20.4683 6.53075L12.2725 11.9946L4.07675 6.53075ZM2.52257 6.88226C2.52244 6.89026 2.52242 6.89826 2.52254 6.90625V16.896C2.52254 18.4148 3.75376 19.646 5.27254 19.646H19.2725C20.7913 19.646 22.0225 18.4148 22.0225 16.896V6.90622M20.5225 8.29738V16.896C20.5225 17.5864 19.9629 18.146 19.2725 18.146H5.27254C4.58218 18.146 4.02254 17.5864 4.02254 16.896V8.29738L11.8565 13.52C12.1084 13.688 12.4366 13.688 12.6886 13.52L20.5225 8.29738ZM22.0225 6.88229C22.0151 5.36981 20.7868 4.146 19.2725 4.146H5.27254C3.75834 4.146 2.52997 5.3698 2.52257 6.88226"/></symbol><symbol viewBox="0 0 24 24" id="facebook" xmlns="http://www.w3.org/2000/svg"><path d="M18 3H15C12.2386 3 10 5.23858 10 8V10H6V14H10V21H14V14H18V10H14V8C14 7.44772 14.4477 7 15 7H18V3Z" stroke-width="1.5" stroke-linecap="round" stroke-linejoin="round"/></symbol><symbol viewBox="0 0 48 48" id="finance" xmlns="http://www.w3.org/2000/svg"><rect x="4" y="8" width="40" height="32" rx="4" stroke-width="2.5"/><circle cx="4" cy="4" r="4" transform="matrix(1 0 0 -1 20 28)" stroke-width="2.5"/><circle cx="2" cy="2" r="2" transform="matrix(1 0 0 -1 34 26)"/><circle cx="2" cy="2" r="2" transform="matrix(1 0 0 -1 10 26)"/></symbol><symbol viewBox="0 0 20 20" id="heart" xmlns="http://www.w3.org/2000/svg"><path fill-rule="evenodd" clip-rule="evenodd" d="M10.577 5.76422C10.2546 6.07365 9.74548 6.07365 9.42304 5.76422L8.84604 5.2105C8.17068 4.56239 7.25832 4.16667 6.25004 4.16667C4.17897 4.16667 2.50004 5.8456 2.50004 7.91667C2.50004 9.90219 3.57486 11.5417 5.1265 12.8888C6.67947 14.237 8.53621 15.1312 9.64558 15.5876C9.87754 15.683 10.1225 15.683 10.3545 15.5876C11.4639 15.1312 13.3206 14.237 14.8736 12.8888C16.4252 11.5417 17.5 9.90218 17.5 7.91667C17.5 5.8456 15.8211 4.16667 13.75 4.16667C12.7418 4.16667 11.8294 4.56239 11.154 5.2105L10.577 5.76422ZM10 4.00798C9.0268 3.074 7.70545 2.5 6.25004 2.5C3.2585 2.5 0.833374 4.92512 0.833374 7.91667C0.833374 13.2235 6.64199 16.1542 9.01153 17.1289C9.64968 17.3914 10.3504 17.3914 10.9885 17.1289C13.3581 16.1542 19.1667 13.2235 19.1667 7.91667C19.1667 4.92512 16.7416 2.5 13.75 2.5C12.2946 2.5 10.9733 3.074 10 4.00798Z"/></symbol><symbol viewBox="0 0 24 24" id="instagram" xmlns="http://www.w3.org/2000/svg"><rect x="2" y="2" width="20" height="20" rx="4" stroke-width="1.5"/><circle cx="18" cy="6" r="1"/><circle cx="12" cy="12" r="5" stroke-width="1.5"/></symbol><symbol viewBox="0 0 48 48" id="lock" xmlns="http://www.w3.org/2000/svg"><path d="M32 16H16M32 16C36.4183 16 40 19.5817 40 24V36C40 40.4183 36.4183 44 32 44H16C11.5817 44 8 40.4183 8 36V24C8 19.5817 11.5817 16 16 16M32 16V12C32 7.58172 28.4183 4 24 4C19.5817 4 16 7.58172 16 12V16M24 32V28" stroke-width="2.5" stroke-linecap="round"/></symbol><symbol viewBox="0 0 24 24" id="menu" xmlns="http://www.w3.org/2000/svg"><path d="M7 8H17M7 12H17M7 16H17" stroke-width="1.5" stroke-linecap="round"/></symbol><symbol viewBox="0 0 22 20" id="percent" xmlns="http://www.w3.org/2000/svg"><path d="M20.0181 12.8356L19.7727 13.5444H19.7727L20.0181 12.8356ZM20.0181 7.16437L20.2635 7.8731V7.8731L20.0181 7.16437ZM1.98189 12.8356L2.22727 13.5444H2.22727L1.98189 12.8356ZM1.98189 7.16437L1.73652 7.8731L1.73652 7.8731L1.98189 7.16437ZM14.5303 7.53033C14.8232 7.23744 14.8232 6.76256 14.5303 6.46967C14.2374 6.17678 13.7626 6.17678 13.4697 6.46967L14.5303 7.53033ZM7.46967 12.4697C7.17678 12.7626 7.17678 13.2374 7.46967 13.5303C7.76256 13.8232 8.23744 13.8232 8.53033 13.5303L7.46967 12.4697ZM5 18.25C3.20507 18.25 1.75 16.7949 1.75 15H0.25C0.25 17.6234 2.37665 19.75 5 19.75V18.25ZM20.25 15C20.25 16.7949 18.7949 18.25 17 18.25V19.75C19.6234 19.75 21.75 17.6234 21.75 15H20.25ZM17 1.75C18.7949 1.75 20.25 3.20507 20.25 5H21.75C21.75 2.37665 19.6234 0.25 17 0.25V1.75ZM5 0.25C2.37665 0.25 0.25 2.37665 0.25 5H1.75C1.75 3.20507 3.20507 1.75 5 1.75V0.25ZM20.2635 12.1269C19.3815 11.8216 18.75 10.9836 18.75 10H17.25C17.25 11.6424 18.3054 13.0363 19.7727 13.5444L20.2635 12.1269ZM18.75 10C18.75 9.01644 19.3815 8.17844 20.2635 7.8731L19.7727 6.45565C18.3054 6.96367 17.25 8.35761 17.25 10H18.75ZM3.25 10C3.25 10.9836 2.61845 11.8216 1.73652 12.1269L2.22727 13.5444C3.69461 13.0363 4.75 11.6424 4.75 10H3.25ZM1.73652 7.8731C2.61845 8.17844 3.25 9.01644 3.25 10H4.75C4.75 8.35762 3.69462 6.96367 2.22727 6.45565L1.73652 7.8731ZM21.75 6V5H20.25V6H21.75ZM20.25 14V15H21.75V14H20.25ZM0.25 14V15H1.75V14H0.25ZM1.75 6V5H0.25V6H1.75ZM17 18.25H5V19.75H17V18.25ZM17 0.25H5V1.75H17V0.25ZM1.73652 12.1269C1.05785 12.3619 0.25 12.9975 0.25 14H1.75C1.75 13.9441 1.77081 13.8708 1.85172 13.7813C1.9366 13.6873 2.06974 13.5989 2.22727 13.5444L1.73652 12.1269ZM20.2635 7.8731C20.9422 7.63813 21.75 7.00246 21.75 6H20.25C20.25 6.05587 20.2292 6.12917 20.1483 6.21871C20.0634 6.31265 19.9303 6.40111 19.7727 6.45565L20.2635 7.8731ZM2.22727 6.45565C2.06974 6.40111 1.9366 6.31265 1.85172 6.21871C1.77081 6.12917 1.75 6.05587 1.75 6H0.25C0.25 7.00246 1.05785 7.63813 1.73652 7.8731L2.22727 6.45565ZM19.7727 13.5444C19.9303 13.5989 20.0634 13.6873 20.1483 13.7813C20.2292 13.8708 20.25 13.9441 20.25 14H21.75C21.75 12.9975 20.9422 12.3619 20.2635 12.1269L19.7727 13.5444ZM8.25 7C8.25 7.13807 8.13807 7.25 8 7.25V8.75C8.9665 8.75 9.75 7.9665 9.75 7H8.25ZM8 7.25C7.86193 7.25 7.75 7.13807 7.75 7H6.25C6.25 7.9665 7.0335 8.75 8 8.75V7.25ZM7.75 7C7.75 6.86193 7.86193 6.75 8 6.75V5.25C7.0335 5.25 6.25 6.0335 6.25 7H7.75ZM8 6.75C8.13807 6.75 8.25 6.86193 8.25 7H9.75C9.75 6.0335 8.9665 5.25 8 5.25V6.75ZM14.25 13C14.25 13.1381 14.1381 13.25 14 13.25V14.75C14.9665 14.75 15.75 13.9665 15.75 13H14.25ZM14 13.25C13.8619 13.25 13.75 13.1381 13.75 13H12.25C12.25 13.9665 13.0335 14.75 14 14.75V13.25ZM13.75 13C13.75 12.8619 13.8619 12.75 14 12.75V11.25C13.0335 11.25 12.25 12.0335 12.25 13H13.75ZM14 12.75C14.1381 12.75 14.25 12.8619 14.25 13H15.75C15.75 12.0335 14.9665 11.25 14 11.25V12.75ZM13.4697 6.46967L7.46967 12.4697L8.53033 13.5303L14.5303 7.53033L13.4697 6.46967Z"/></symbol><symbol viewBox="0 0 22 22" id="search" xmlns="http://www.w3.org/2000/svg"><path d="M17.5 17.5L21 21M20 10.5C20 5.25329 15.7467 1 10.5 1C5.25329 1 1 5.25329 1 10.5C1 15.7467 5.25329 20 10.5 20C15.7467 20 20 15.7467 20 10.5Z" stroke-width="1.5" stroke-linecap="round" stroke-linejoin="round"/></symbol><symbol viewBox="0 0 24 24" id="search-02" xmlns="http://www.w3.org/2000/svg"><path d="M18.5 18.5L22 22M21 11.5C21 6.25329 16.7467 2 11.5 2C6.25329 2 2 6.25329 2 11.5C2 16.7467 6.25329 21 11.5 21C16.7467 21 21 16.7467 21 11.5Z" stroke-width="1.5" stroke-linecap="round" stroke-linejoin="round"/></symbol><symbol viewBox="0 0 48 48" id="shipping" xmlns="http://www.w3.org/2000/svg"><path d="M28 38V14M28 38H32M28 38H18M28 14C28 9.58172 24.4183 6 20 6H12C7.58172 6 4 9.58172 4 14V30C4 33.7304 6.55333 36.8645 10.0077 37.7499M28 14H34.4182C35.4344 14 36.4126 14.3868 37.154 15.0819L42.7358 20.3148C43.5424 21.071 44 22.1273 44 23.2329V34C44 36.2091 42.2091 38 40 38M40 38C40 40.2091 38.2091 42 36 42C33.7909 42 32 40.2091 32 38M40 38C40 35.7909 38.2091 34 36 34C33.7909 34 32 35.7909 32 38M18 38C18 40.2091 16.2091 42 14 42C11.7909 42 10 40.2091 10 38C10 37.916 10.0026 37.8326 10.0077 37.7499M18 38C18 35.7909 16.2091 34 14 34C11.8748 34 10.1368 35.6573 10.0077 37.7499" stroke-width="2.5"/><path d="M20 16H16" stroke-width="2.5" stroke-linecap="round" stroke-linejoin="round"/><path d="M20 24H12" stroke-width="2.5" stroke-linecap="round" stroke-linejoin="round"/></symbol><symbol viewBox="0 0 24 24" id="shopping-bag" xmlns="http://www.w3.org/2000/svg"><path d="M9 6L9 7C9 8.65685 10.3431 10 12 10C13.6569 10 15 8.65685 15 7V6" stroke-width="1.5" stroke-linecap="round" stroke-linejoin="round"/><path d="M15.6116 3H8.3886C6.43325 3 4.76449 4.41365 4.44303 6.3424L2.77636 16.3424C2.37001 18.7805 4.25018 21 6.72194 21H17.2783C19.75 21 21.6302 18.7805 21.2238 16.3424L19.5572 6.3424C19.2357 4.41365 17.5669 3 15.6116 3Z" stroke-width="1.5" stroke-linejoin="round"/></symbol><symbol viewBox="0 0 14 14" id="star" xmlns="http://www.w3.org/2000/svg"><path d="M6.53834 1.10997C6.70914 0.699319 7.29086 0.699318 7.46166 1.10996L8.99874 4.80556C9.07075 4.97868 9.23355 5.09696 9.42045 5.11194L13.4102 5.4318C13.8535 5.46734 14.0332 6.02059 13.6955 6.30993L10.6557 8.91378C10.5133 9.03576 10.4512 9.22715 10.4947 9.40952L11.4234 13.3028C11.5265 13.7354 11.0559 14.0773 10.6764 13.8455L7.26063 11.7592C7.10062 11.6615 6.89938 11.6615 6.73937 11.7592L3.32363 13.8455C2.94408 14.0773 2.47345 13.7354 2.57665 13.3028L3.50534 9.40952C3.54884 9.22715 3.48665 9.03576 3.34426 8.91378L0.304527 6.30993C-0.0332418 6.02059 0.14652 5.46734 0.589847 5.4318L4.57955 5.11194C4.76645 5.09696 4.92925 4.97868 5.00126 4.80556L6.53834 1.10997Z"/></symbol><symbol viewBox="0 0 24 24" id="user" xmlns="http://www.w3.org/2000/svg"><path d="M18.5588 19.5488C17.5654 16.8918 15.0036 15 12 15C8.99638 15 6.4346 16.8918 5.44117 19.5488M18.5588 19.5488C20.6672 17.7154 22 15.0134 22 12C22 6.47715 17.5228 2 12 2C6.47715 2 2 6.47715 2 12C2 15.0134 3.33285 17.7154 5.44117 19.5488M18.5588 19.5488C16.8031 21.0756 14.5095 22 12 22C9.49052 22 7.19694 21.0756 5.44117 19.5488M15 9C15 10.6569 13.6569 12 12 12C10.3431 12 9 10.6569 9 9C9 7.34315 10.3431 6 12 6C13.6569 6 15 7.34315 15 9Z" stroke-width="1.5" stroke-linejoin="round"/></symbol><symbol viewBox="0 0 24 24" id="youtube" xmlns="http://www.w3.org/2000/svg"><rect x="2" y="3" width="20" height="18" rx="4" stroke-width="1.5"/><path d="M10.4472 8.72361L15.2111 11.1056C15.9482 11.4741 15.9482 12.5259 15.2111 12.8944L10.4472 15.2764C9.78231 15.6088 9 15.1253 9 14.382V9.61803C9 8.87465 9.78231 8.39116 10.4472 8.72361Z" stroke-width="1.5" stroke-linecap="round"/></symbol></svg>